<svg width="28" height="28" viewBox="0 0 28 28" fill="none" xmlns="http://www.w3.org/2000/svg">
<g filter="url(#filter0_d)">
<path fill-rule="evenodd" clip-rule="evenodd" d="M5 10.3326V9.22161C5 9.58031 5 10.5326 5.65062 10.5326H5.2C5.08954 10.5326 5 10.4431 5 10.3326Z" fill="#EB5757"/>
<path d="M5 8.24739V7.74739C4.72386 7.74739 4.5 7.97125 4.5 8.24739H5ZM23 8.24739H23.5C23.5 7.97125 23.2761 7.74739 23 7.74739V8.24739ZM8.25312 6.62369L8.25312 6.12369C8.12051 6.12369 7.99333 6.17636 7.89956 6.27013C7.80579 6.3639 7.75312 6.49108 7.75312 6.62369H8.25312ZM19.7469 6.62369H20.2469C20.2469 6.49108 20.1942 6.3639 20.1004 6.27013C20.0067 6.17636 19.8795 6.12369 19.7469 6.12369L19.7469 6.62369ZM13.1867 6.62372L13.1867 7.12372C13.3193 7.12372 13.4465 7.07104 13.5403 6.97727C13.634 6.8835 13.6867 6.75632 13.6867 6.62372H13.1867ZM15 6.62372H14.5C14.5 6.75632 14.5527 6.8835 14.6464 6.97727C14.7402 7.07104 14.8674 7.12372 15 7.12372L15 6.62372ZM19.7469 8.24739H19.2469C19.2469 8.52353 19.4707 8.74739 19.7469 8.74739V8.24739ZM8.25312 8.24739V8.74739C8.52926 8.74739 8.75312 8.52353 8.75312 8.24739H8.25312ZM8.25312 23H7.75312C7.75312 23.2761 7.97697 23.5 8.25312 23.5V23ZM19.7469 23V23.5C20.023 23.5 20.2469 23.2761 20.2469 23H19.7469ZM11.5 12C11.5 11.7239 11.2761 11.5 11 11.5C10.7239 11.5 10.5 11.7239 10.5 12H11.5ZM10.5 21C10.5 21.2762 10.7239 21.5 11 21.5C11.2761 21.5 11.5 21.2762 11.5 21H10.5ZM14.5 12C14.5 11.7239 14.2761 11.5 14 11.5C13.7239 11.5 13.5 11.7239 13.5 12H14.5ZM13.5 21C13.5 21.2762 13.7239 21.5 14 21.5C14.2761 21.5 14.5 21.2762 14.5 21H13.5ZM17.5 12C17.5 11.7239 17.2761 11.5 17 11.5C16.7239 11.5 16.5 11.7239 16.5 12H17.5ZM16.5 21C16.5 21.2762 16.7239 21.5 17 21.5C17.2761 21.5 17.5 21.2762 17.5 21H16.5ZM23 10.5326V11.0326C23.2761 11.0326 23.5 10.8088 23.5 10.5326H23ZM13.1867 5.00007V4.50007C12.9106 4.50007 12.6867 4.72393 12.6867 5.00007H13.1867ZM15 5.00007H15.5C15.5 4.72393 15.2761 4.50007 15 4.50007V5.00007ZM13.1867 6.12372L8.25312 6.12369L8.25311 7.12369L13.1867 7.12372L13.1867 6.12372ZM19.7469 6.12369L15 6.12372L15 7.12372L19.7469 7.12369L19.7469 6.12369ZM23 7.74739H19.7469V8.74739H23V7.74739ZM20.2469 8.24739V6.62369H19.2469V8.24739H20.2469ZM7.75312 6.62369V8.24739H8.75312V6.62369H7.75312ZM8.25312 7.74739H5V8.74739H8.25312V7.74739ZM8.75312 23V10.5326H7.75312V23H8.75312ZM8.25312 10.0326H5.65062V11.0326H8.25312V10.0326ZM5.65062 10.0326C5.63178 10.0326 5.62836 10.0295 5.63317 10.0316C5.63779 10.0336 5.63851 10.0354 5.63441 10.0312C5.62128 10.0175 5.59059 9.97341 5.56187 9.8735C5.50297 9.66862 5.5 9.41036 5.5 9.22161H4.5C4.5 9.39157 4.49703 9.78882 4.60079 10.1498C4.6534 10.3328 4.7447 10.5491 4.91456 10.7253C5.09835 10.9159 5.34943 11.0326 5.65062 11.0326V10.0326ZM5.5 9.22161V8.24739H4.5V9.22161H5.5ZM19.2469 10.5326V23H20.2469V10.5326H19.2469ZM19.7469 22.5H8.25312V23.5H19.7469V22.5ZM19.7469 10.0326H8.25312V11.0326H19.7469V10.0326ZM5.65062 10.0326H5.2V11.0326H5.65062V10.0326ZM5.2 10.0326C5.36568 10.0326 5.5 10.1669 5.5 10.3326H4.5C4.5 10.7192 4.8134 11.0326 5.2 11.0326V10.0326ZM5.5 10.3326V9.22161H4.5V10.3326H5.5ZM10.5 12V21H11.5V12H10.5ZM13.5 12V21H14.5V12H13.5ZM16.5 12V21H17.5V12H16.5ZM22.5 8.24739V10.5326H23.5V8.24739H22.5ZM23 10.0326H19.7469V11.0326H23V10.0326ZM13.6867 6.62372C13.6867 6.62214 13.6867 6.62057 13.6867 6.619C13.6867 6.61743 13.6867 6.61587 13.6867 6.6143C13.6867 6.61273 13.6867 6.61116 13.6867 6.6096C13.6867 6.60803 13.6867 6.60646 13.6867 6.6049C13.6867 6.60333 13.6867 6.60177 13.6867 6.6002C13.6867 6.59864 13.6867 6.59708 13.6867 6.59552C13.6867 6.59395 13.6867 6.59239 13.6867 6.59083C13.6867 6.58927 13.6867 6.58771 13.6867 6.58615C13.6867 6.58459 13.6867 6.58303 13.6867 6.58147C13.6867 6.57992 13.6867 6.57836 13.6867 6.5768C13.6867 6.57525 13.6867 6.57369 13.6867 6.57214C13.6867 6.57058 13.6867 6.56903 13.6867 6.56747C13.6867 6.56592 13.6867 6.56437 13.6867 6.56282C13.6867 6.56127 13.6867 6.55971 13.6867 6.55816C13.6867 6.55661 13.6867 6.55506 13.6867 6.55352C13.6867 6.55197 13.6867 6.55042 13.6867 6.54887C13.6867 6.54732 13.6867 6.54578 13.6867 6.54423C13.6867 6.54269 13.6867 6.54114 13.6867 6.5396C13.6867 6.53805 13.6867 6.53651 13.6867 6.53497C13.6867 6.53342 13.6867 6.53188 13.6867 6.53034C13.6867 6.5288 13.6867 6.52726 13.6867 6.52572C13.6867 6.52418 13.6867 6.52264 13.6867 6.5211C13.6867 6.51956 13.6867 6.51803 13.6867 6.51649C13.6867 6.51495 13.6867 6.51342 13.6867 6.51188C13.6867 6.51035 13.6867 6.50881 13.6867 6.50728C13.6867 6.50574 13.6867 6.50421 13.6867 6.50268C13.6867 6.50115 13.6867 6.49962 13.6867 6.49809C13.6867 6.49656 13.6867 6.49503 13.6867 6.4935C13.6867 6.49197 13.6867 6.49044 13.6867 6.48891C13.6867 6.48738 13.6867 6.48586 13.6867 6.48433C13.6867 6.48281 13.6867 6.48128 13.6867 6.47976C13.6867 6.47823 13.6867 6.47671 13.6867 6.47519C13.6867 6.47366 13.6867 6.47214 13.6867 6.47062C13.6867 6.4691 13.6867 6.46758 13.6867 6.46606C13.6867 6.46454 13.6867 6.46302 13.6867 6.4615C13.6867 6.45998 13.6867 6.45847 13.6867 6.45695C13.6867 6.45543 13.6867 6.45392 13.6867 6.4524C13.6867 6.45089 13.6867 6.44938 13.6867 6.44786C13.6867 6.44635 13.6867 6.44484 13.6867 6.44332C13.6867 6.44181 13.6867 6.4403 13.6867 6.43879C13.6867 6.43728 13.6867 6.43577 13.6867 6.43426C13.6867 6.43275 13.6867 6.43125 13.6867 6.42974C13.6867 6.42823 13.6867 6.42673 13.6867 6.42522C13.6867 6.42372 13.6867 6.42221 13.6867 6.42071C13.6867 6.4192 13.6867 6.4177 13.6867 6.4162C13.6867 6.4147 13.6867 6.4132 13.6867 6.41169C13.6867 6.41019 13.6867 6.40869 13.6867 6.4072C13.6867 6.4057 13.6867 6.4042 13.6867 6.4027C13.6867 6.4012 13.6867 6.39971 13.6867 6.39821C13.6867 6.39672 13.6867 6.39522 13.6867 6.39373C13.6867 6.39223 13.6867 6.39074 13.6867 6.38925C13.6867 6.38775 13.6867 6.38626 13.6867 6.38477C13.6867 6.38328 13.6867 6.38179 13.6867 6.3803C13.6867 6.37881 13.6867 6.37732 13.6867 6.37584C13.6867 6.37435 13.6867 6.37286 13.6867 6.37138C13.6867 6.36989 13.6867 6.36841 13.6867 6.36692C13.6867 6.36544 13.6867 6.36395 13.6867 6.36247C13.6867 6.36099 13.6867 6.35951 13.6867 6.35802C13.6867 6.35654 13.6867 6.35506 13.6867 6.35358C13.6867 6.3521 13.6867 6.35063 13.6867 6.34915C13.6867 6.34767 13.6867 6.34619 13.6867 6.34472C13.6867 6.34324 13.6867 6.34177 13.6867 6.34029C13.6867 6.33882 13.6867 6.33734 13.6867 6.33587C13.6867 6.3344 13.6867 6.33293 13.6867 6.33145C13.6867 6.32998 13.6867 6.32851 13.6867 6.32704C13.6867 6.32557 13.6867 6.32411 13.6867 6.32264C13.6867 6.32117 13.6867 6.3197 13.6867 6.31824C13.6867 6.31677 13.6867 6.31531 13.6867 6.31384C13.6867 6.31238 13.6867 6.31091 13.6867 6.30945C13.6867 6.30799 13.6867 6.30653 13.6867 6.30506C13.6867 6.3036 13.6867 6.30214 13.6867 6.30068C13.6867 6.29922 13.6867 6.29777 13.6867 6.29631C13.6867 6.29485 13.6867 6.29339 13.6867 6.29194C13.6867 6.29048 13.6867 6.28903 13.6867 6.28757C13.6867 6.28612 13.6867 6.28466 13.6867 6.28321C13.6867 6.28176 13.6867 6.28031 13.6867 6.27886C13.6867 6.27741 13.6867 6.27596 13.6867 6.27451C13.6867 6.27306 13.6867 6.27161 13.6867 6.27016C13.6867 6.26871 13.6867 6.26727 13.6867 6.26582C13.6867 6.26438 13.6867 6.26293 13.6867 6.26149C13.6867 6.26004 13.6867 6.2586 13.6867 6.25716C13.6867 6.25571 13.6867 6.25427 13.6867 6.25283C13.6867 6.25139 13.6867 6.24995 13.6867 6.24851C13.6867 6.24707 13.6867 6.24564 13.6867 6.2442C13.6867 6.24276 13.6867 6.24133 13.6867 6.23989C13.6867 6.23845 13.6867 6.23702 13.6867 6.23559C13.6867 6.23415 13.6867 6.23272 13.6867 6.23129C13.6867 6.22986 13.6867 6.22842 13.6867 6.22699C13.6867 6.22556 13.6867 6.22413 13.6867 6.22271C13.6867 6.22128 13.6867 6.21985 13.6867 6.21842C13.6867 6.217 13.6867 6.21557 13.6867 6.21415C13.6867 6.21272 13.6867 6.2113 13.6867 6.20987C13.6867 6.20845 13.6867 6.20703 13.6867 6.20561C13.6867 6.20418 13.6867 6.20276 13.6867 6.20134C13.6867 6.19992 13.6867 6.19851 13.6867 6.19709C13.6867 6.19567 13.6867 6.19425 13.6867 6.19284C13.6867 6.19142 13.6867 6.19001 13.6867 6.18859C13.6867 6.18718 13.6867 6.18576 13.6867 6.18435C13.6867 6.18294 13.6867 6.18153 13.6867 6.18011C13.6867 6.1787 13.6867 6.17729 13.6867 6.17588C13.6867 6.17448 13.6867 6.17307 13.6867 6.17166C13.6867 6.17025 13.6867 6.16885 13.6867 6.16744C13.6867 6.16604 13.6867 6.16463 13.6867 6.16323C13.6867 6.16182 13.6867 6.16042 13.6867 6.15902C13.6867 6.15762 13.6867 6.15622 13.6867 6.15481C13.6867 6.15341 13.6867 6.15202 13.6867 6.15062C13.6867 6.14922 13.6867 6.14782 13.6867 6.14642C13.6867 6.14503 13.6867 6.14363 13.6867 6.14224C13.6867 6.14084 13.6867 6.13945 13.6867 6.13806C13.6867 6.13666 13.6867 6.13527 13.6867 6.13388C13.6867 6.13249 13.6867 6.1311 13.6867 6.12971C13.6867 6.12832 13.6867 6.12693 13.6867 6.12554C13.6867 6.12416 13.6867 6.12277 13.6867 6.12138C13.6867 6.12 13.6867 6.11861 13.6867 6.11723C13.6867 6.11585 13.6867 6.11446 13.6867 6.11308C13.6867 6.1117 13.6867 6.11032 13.6867 6.10894C13.6867 6.10756 13.6867 6.10618 13.6867 6.1048C13.6867 6.10342 13.6867 6.10204 13.6867 6.10067C13.6867 6.09929 13.6867 6.09791 13.6867 6.09654C13.6867 6.09517 13.6867 6.09379 13.6867 6.09242C13.6867 6.09105 13.6867 6.08967 13.6867 6.0883C13.6867 6.08693 13.6867 6.08556 13.6867 6.08419C13.6867 6.08282 13.6867 6.08146 13.6867 6.08009C13.6867 6.07872 13.6867 6.07735 13.6867 6.07599C13.6867 6.07462 13.6867 6.07326 13.6867 6.0719C13.6867 6.07053 13.6867 6.06917 13.6867 6.06781C13.6867 6.06645 13.6867 6.06508 13.6867 6.06372C13.6867 6.06237 13.6867 6.06101 13.6867 6.05965C13.6867 6.05829 13.6867 6.05693 13.6867 6.05558C13.6867 6.05422 13.6867 6.05287 13.6867 6.05151C13.6867 6.05016 13.6867 6.0488 13.6867 6.04745C13.6867 6.0461 13.6867 6.04475 13.6867 6.0434C13.6867 6.04205 13.6867 6.0407 13.6867 6.03935C13.6867 6.038 13.6867 6.03665 13.6867 6.03531C13.6867 6.03396 13.6867 6.03261 13.6867 6.03127C13.6867 6.02992 13.6867 6.02858 13.6867 6.02724C13.6867 6.02589 13.6867 6.02455 13.6867 6.02321C13.6867 6.02187 13.6867 6.02053 13.6867 6.01919C13.6867 6.01785 13.6867 6.01651 13.6867 6.01518C13.6867 6.01384 13.6867 6.0125 13.6867 6.01117C13.6867 6.00983 13.6867 6.0085 13.6867 6.00716C13.6867 6.00583 13.6867 6.0045 13.6867 6.00317C13.6867 6.00183 13.6867 6.0005 13.6867 5.99917C13.6867 5.99785 13.6867 5.99652 13.6867 5.99519C13.6867 5.99386 13.6867 5.99253 13.6867 5.99121C13.6867 5.98988 13.6867 5.98856 13.6867 5.98723C13.6867 5.98591 13.6867 5.98459 13.6867 5.98327C13.6867 5.98194 13.6867 5.98062 13.6867 5.9793C13.6867 5.97798 13.6867 5.97666 13.6867 5.97535C13.6867 5.97403 13.6867 5.97271 13.6867 5.9714C13.6867 5.97008 13.6867 5.96876 13.6867 5.96745C13.6867 5.96614 13.6867 5.96482 13.6867 5.96351C13.6867 5.9622 13.6867 5.96089 13.6867 5.95958C13.6867 5.95827 13.6867 5.95696 13.6867 5.95565C13.6867 5.95434 13.6867 5.95303 13.6867 5.95173C13.6867 5.95042 13.6867 5.94912 13.6867 5.94781C13.6867 5.94651 13.6867 5.9452 13.6867 5.9439C13.6867 5.9426 13.6867 5.9413 13.6867 5.94C13.6867 5.9387 13.6867 5.9374 13.6867 5.9361C13.6867 5.9348 13.6867 5.9335 13.6867 5.93221C13.6867 5.93091 13.6867 5.92961 13.6867 5.92832C13.6867 5.92702 13.6867 5.92573 13.6867 5.92444C13.6867 5.92315 13.6867 5.92185 13.6867 5.92056C13.6867 5.91927 13.6867 5.91798 13.6867 5.9167C13.6867 5.91541 13.6867 5.91412 13.6867 5.91283C13.6867 5.91155 13.6867 5.91026 13.6867 5.90898C13.6867 5.90769 13.6867 5.90641 13.6867 5.90512C13.6867 5.90384 13.6867 5.90256 13.6867 5.90128C13.6867 5.9 13.6867 5.89872 13.6867 5.89744C13.6867 5.89616 13.6867 5.89489 13.6867 5.89361C13.6867 5.89233 13.6867 5.89106 13.6867 5.88978C13.6867 5.88851 13.6867 5.88723 13.6867 5.88596C13.6867 5.88469 13.6867 5.88342 13.6867 5.88215C13.6867 5.88088 13.6867 5.87961 13.6867 5.87834C13.6867 5.87707 13.6867 5.8758 13.6867 5.87453C13.6867 5.87327 13.6867 5.872 13.6867 5.87074C13.6867 5.86947 13.6867 5.86821 13.6867 5.86695C13.6867 5.86569 13.6867 5.86442 13.6867 5.86316C13.6867 5.8619 13.6867 5.86064 13.6867 5.85939C13.6867 5.85813 13.6867 5.85687 13.6867 5.85561C13.6867 5.85436 13.6867 5.8531 13.6867 5.85185C13.6867 5.85059 13.6867 5.84934 13.6867 5.84809C13.6867 5.84683 13.6867 5.84558 13.6867 5.84433C13.6867 5.84308 13.6867 5.84183 13.6867 5.84059C13.6867 5.83934 13.6867 5.83809 13.6867 5.83684C13.6867 5.8356 13.6867 5.83435 13.6867 5.83311C13.6867 5.83186 13.6867 5.83062 13.6867 5.82938C13.6867 5.82814 13.6867 5.8269 13.6867 5.82566C13.6867 5.82442 13.6867 5.82318 13.6867 5.82194C13.6867 5.8207 13.6867 5.81946 13.6867 5.81823C13.6867 5.81699 13.6867 5.81576 13.6867 5.81452C13.6867 5.81329 13.6867 5.81206 13.6867 5.81083C13.6867 5.80959 13.6867 5.80836 13.6867 5.80713C13.6867 5.8059 13.6867 5.80468 13.6867 5.80345C13.6867 5.80222 13.6867 5.80099 13.6867 5.79977C13.6867 5.79854 13.6867 5.79732 13.6867 5.7961C13.6867 5.79487 13.6867 5.79365 13.6867 5.79243C13.6867 5.79121 13.6867 5.78999 13.6867 5.78877C13.6867 5.78755 13.6867 5.78633 13.6867 5.78511C13.6867 5.7839 13.6867 5.78268 13.6867 5.78147C13.6867 5.78025 13.6867 5.77904 13.6867 5.77782C13.6867 5.77661 13.6867 5.7754 13.6867 5.77419C13.6867 5.77298 13.6867 5.77177 13.6867 5.77056C13.6867 5.76935 13.6867 5.76814 13.6867 5.76694C13.6867 5.76573 13.6867 5.76452 13.6867 5.76332C13.6867 5.76212 13.6867 5.76091 13.6867 5.75971C13.6867 5.75851 13.6867 5.75731 13.6867 5.75611C13.6867 5.75491 13.6867 5.75371 13.6867 5.75251C13.6867 5.75131 13.6867 5.75011 13.6867 5.74892C13.6867 5.74772 13.6867 5.74653 13.6867 5.74533C13.6867 5.74414 13.6867 5.74295 13.6867 5.74175C13.6867 5.74056 13.6867 5.73937 13.6867 5.73818C13.6867 5.73699 13.6867 5.7358 13.6867 5.73462C13.6867 5.73343 13.6867 5.73224 13.6867 5.73106C13.6867 5.72987 13.6867 5.72869 13.6867 5.72751C13.6867 5.72632 13.6867 5.72514 13.6867 5.72396C13.6867 5.72278 13.6867 5.7216 13.6867 5.72042C13.6867 5.71924 13.6867 5.71806 13.6867 5.71689C13.6867 5.71571 13.6867 5.71453 13.6867 5.71336C13.6867 5.71219 13.6867 5.71101 13.6867 5.70984C13.6867 5.70867 13.6867 5.7075 13.6867 5.70633C13.6867 5.70516 13.6867 5.70399 13.6867 5.70282C13.6867 5.70165 13.6867 5.70048 13.6867 5.69932C13.6867 5.69815 13.6867 5.69699 13.6867 5.69582C13.6867 5.69466 13.6867 5.6935 13.6867 5.69234C13.6867 5.69118 13.6867 5.69002 13.6867 5.68886C13.6867 5.6877 13.6867 5.68654 13.6867 5.68538C13.6867 5.68422 13.6867 5.68307 13.6867 5.68191C13.6867 5.68076 13.6867 5.67961 13.6867 5.67845C13.6867 5.6773 13.6867 5.67615 13.6867 5.675C13.6867 5.67385 13.6867 5.6727 13.6867 5.67155C13.6867 5.6704 13.6867 5.66925 13.6867 5.66811C13.6867 5.66696 13.6867 5.66582 13.6867 5.66467C13.6867 5.66353 13.6867 5.66239 13.6867 5.66125C13.6867 5.6601 13.6867 5.65896 13.6867 5.65782C13.6867 5.65668 13.6867 5.65555 13.6867 5.65441C13.6867 5.65327 13.6867 5.65214 13.6867 5.651C13.6867 5.64987 13.6867 5.64873 13.6867 5.6476C13.6867 5.64647 13.6867 5.64533 13.6867 5.6442C13.6867 5.64307 13.6867 5.64194 13.6867 5.64082C13.6867 5.63969 13.6867 5.63856 13.6867 5.63743C13.6867 5.63631 13.6867 5.63518 13.6867 5.63406C13.6867 5.63294 13.6867 5.63181 13.6867 5.63069C13.6867 5.62957 13.6867 5.62845 13.6867 5.62733C13.6867 5.62621 13.6867 5.62509 13.6867 5.62397C13.6867 5.62286 13.6867 5.62174 13.6867 5.62063C13.6867 5.61951 13.6867 5.6184 13.6867 5.61729C13.6867 5.61617 13.6867 5.61506 13.6867 5.61395C13.6867 5.61284 13.6867 5.61173 13.6867 5.61062C13.6867 5.60951 13.6867 5.60841 13.6867 5.6073C13.6867 5.6062 13.6867 5.60509 13.6867 5.60399C13.6867 5.60288 13.6867 5.60178 13.6867 5.60068C13.6867 5.59958 13.6867 5.59848 13.6867 5.59738C13.6867 5.59628 13.6867 5.59518 13.6867 5.59409C13.6867 5.59299 13.6867 5.59189 13.6867 5.5908C13.6867 5.5897 13.6867 5.58861 13.6867 5.58752C13.6867 5.58643 13.6867 5.58534 13.6867 5.58425C13.6867 5.58316 13.6867 5.58207 13.6867 5.58098C13.6867 5.57989 13.6867 5.57881 13.6867 5.57772C13.6867 5.57663 13.6867 5.57555 13.6867 5.57447C13.6867 5.57338 13.6867 5.5723 13.6867 5.57122C13.6867 5.57014 13.6867 5.56906 13.6867 5.56798C13.6867 5.5669 13.6867 5.56583 13.6867 5.56475C13.6867 5.56367 13.6867 5.5626 13.6867 5.56153C13.6867 5.56045 13.6867 5.55938 13.6867 5.55831C13.6867 5.55724 13.6867 5.55617 13.6867 5.5551C13.6867 5.55403 13.6867 5.55296 13.6867 5.55189C13.6867 5.55083 13.6867 5.54976 13.6867 5.5487C13.6867 5.54763 13.6867 5.54657 13.6867 5.5455C13.6867 5.54444 13.6867 5.54338 13.6867 5.54232C13.6867 5.54126 13.6867 5.5402 13.6867 5.53915C13.6867 5.53809 13.6867 5.53703 13.6867 5.53598C13.6867 5.53492 13.6867 5.53387 13.6867 5.53281C13.6867 5.53176 13.6867 5.53071 13.6867 5.52966C13.6867 5.52861 13.6867 5.52756 13.6867 5.52651C13.6867 5.52546 13.6867 5.52441 13.6867 5.52337C13.6867 5.52232 13.6867 5.52128 13.6867 5.52023C13.6867 5.51919 13.6867 5.51815 13.6867 5.51711C13.6867 5.51607 13.6867 5.51503 13.6867 5.51399C13.6867 5.51295 13.6867 5.51191 13.6867 5.51087C13.6867 5.50984 13.6867 5.5088 13.6867 5.50777C13.6867 5.50673 13.6867 5.5057 13.6867 5.50467C13.6867 5.50364 13.6867 5.50261 13.6867 5.50158C13.6867 5.50055 13.6867 5.49952 13.6867 5.49849C13.6867 5.49747 13.6867 5.49644 13.6867 5.49542C13.6867 5.49439 13.6867 5.49337 13.6867 5.49234C13.6867 5.49132 13.6867 5.4903 13.6867 5.48928C13.6867 5.48826 13.6867 5.48724 13.6867 5.48623C13.6867 5.48521 13.6867 5.48419 13.6867 5.48318C13.6867 5.48216 13.6867 5.48115 13.6867 5.48013C13.6867 5.47912 13.6867 5.47811 13.6867 5.4771C13.6867 5.47609 13.6867 5.47508 13.6867 5.47407C13.6867 5.47306 13.6867 5.47206 13.6867 5.47105C13.6867 5.47005 13.6867 5.46904 13.6867 5.46804C13.6867 5.46704 13.6867 5.46603 13.6867 5.46503C13.6867 5.46403 13.6867 5.46303 13.6867 5.46203C13.6867 5.46104 13.6867 5.46004 13.6867 5.45904C13.6867 5.45805 13.6867 5.45705 13.6867 5.45606C13.6867 5.45507 13.6867 5.45407 13.6867 5.45308C13.6867 5.45209 13.6867 5.4511 13.6867 5.45011C13.6867 5.44912 13.6867 5.44814 13.6867 5.44715C13.6867 5.44616 13.6867 5.44518 13.6867 5.44419C13.6867 5.44321 13.6867 5.44223 13.6867 5.44125C13.6867 5.44027 13.6867 5.43929 13.6867 5.43831C13.6867 5.43733 13.6867 5.43635 13.6867 5.43537C13.6867 5.4344 13.6867 5.43342 13.6867 5.43245C13.6867 5.43147 13.6867 5.4305 13.6867 5.42953C13.6867 5.42856 13.6867 5.42759 13.6867 5.42662C13.6867 5.42565 13.6867 5.42468 13.6867 5.42371C13.6867 5.42275 13.6867 5.42178 13.6867 5.42082C13.6867 5.41985 13.6867 5.41889 13.6867 5.41793C13.6867 5.41697 13.6867 5.41601 13.6867 5.41505C13.6867 5.41409 13.6867 5.41313 13.6867 5.41217C13.6867 5.41122 13.6867 5.41026 13.6867 5.4093C13.6867 5.40835 13.6867 5.4074 13.6867 5.40645C13.6867 5.40549 13.6867 5.40454 13.6867 5.40359C13.6867 5.40264 13.6867 5.4017 13.6867 5.40075C13.6867 5.3998 13.6867 5.39886 13.6867 5.39791C13.6867 5.39697 13.6867 5.39602 13.6867 5.39508C13.6867 5.39414 13.6867 5.3932 13.6867 5.39226C13.6867 5.39132 13.6867 5.39038 13.6867 5.38944C13.6867 5.38851 13.6867 5.38757 13.6867 5.38664C13.6867 5.3857 13.6867 5.38477 13.6867 5.38384C13.6867 5.3829 13.6867 5.38197 13.6867 5.38104C13.6867 5.38011 13.6867 5.37919 13.6867 5.37826C13.6867 5.37733 13.6867 5.37641 13.6867 5.37548C13.6867 5.37456 13.6867 5.37363 13.6867 5.37271C13.6867 5.37179 13.6867 5.37087 13.6867 5.36995C13.6867 5.36903 13.6867 5.36811 13.6867 5.36719C13.6867 5.36628 13.6867 5.36536 13.6867 5.36445C13.6867 5.36353 13.6867 5.36262 13.6867 5.36171C13.6867 5.3608 13.6867 5.35989 13.6867 5.35898C13.6867 5.35807 13.6867 5.35716 13.6867 5.35625C13.6867 5.35534 13.6867 5.35444 13.6867 5.35353C13.6867 5.35263 13.6867 5.35173 13.6867 5.35082C13.6867 5.34992 13.6867 5.34902 13.6867 5.34812C13.6867 5.34722 13.6867 5.34633 13.6867 5.34543C13.6867 5.34453 13.6867 5.34364 13.6867 5.34274C13.6867 5.34185 13.6867 5.34096 13.6867 5.34006C13.6867 5.33917 13.6867 5.33828 13.6867 5.33739C13.6867 5.3365 13.6867 5.33562 13.6867 5.33473C13.6867 5.33384 13.6867 5.33296 13.6867 5.33207C13.6867 5.33119 13.6867 5.33031 13.6867 5.32942C13.6867 5.32854 13.6867 5.32766 13.6867 5.32678C13.6867 5.3259 13.6867 5.32503 13.6867 5.32415C13.6867 5.32327 13.6867 5.3224 13.6867 5.32153C13.6867 5.32065 13.6867 5.31978 13.6867 5.31891C13.6867 5.31804 13.6867 5.31717 13.6867 5.3163C13.6867 5.31543 13.6867 5.31456 13.6867 5.3137C13.6867 5.31283 13.6867 5.31197 13.6867 5.3111C13.6867 5.31024 13.6867 5.30938 13.6867 5.30852C13.6867 5.30766 13.6867 5.3068 13.6867 5.30594C13.6867 5.30508 13.6867 5.30422 13.6867 5.30337C13.6867 5.30251 13.6867 5.30166 13.6867 5.3008C13.6867 5.29995 13.6867 5.2991 13.6867 5.29825C13.6867 5.2974 13.6867 5.29655 13.6867 5.2957C13.6867 5.29485 13.6867 5.29401 13.6867 5.29316C13.6867 5.29232 13.6867 5.29147 13.6867 5.29063C13.6867 5.28979 13.6867 5.28894 13.6867 5.2881C13.6867 5.28726 13.6867 5.28643 13.6867 5.28559C13.6867 5.28475 13.6867 5.28391 13.6867 5.28308C13.6867 5.28225 13.6867 5.28141 13.6867 5.28058C13.6867 5.27975 13.6867 5.27892 13.6867 5.27809C13.6867 5.27726 13.6867 5.27643 13.6867 5.2756C13.6867 5.27478 13.6867 5.27395 13.6867 5.27313C13.6867 5.2723 13.6867 5.27148 13.6867 5.27066C13.6867 5.26983 13.6867 5.26901 13.6867 5.2682C13.6867 5.26738 13.6867 5.26656 13.6867 5.26574C13.6867 5.26493 13.6867 5.26411 13.6867 5.2633C13.6867 5.26248 13.6867 5.26167 13.6867 5.26086C13.6867 5.26005 13.6867 5.25924 13.6867 5.25843C13.6867 5.25762 13.6867 5.25681 13.6867 5.25601C13.6867 5.2552 13.6867 5.2544 13.6867 5.2536C13.6867 5.25279 13.6867 5.25199 13.6867 5.25119C13.6867 5.25039 13.6867 5.24959 13.6867 5.24879C13.6867 5.24799 13.6867 5.2472 13.6867 5.2464C13.6867 5.24561 13.6867 5.24481 13.6867 5.24402C13.6867 5.24323 13.6867 5.24244 13.6867 5.24165C13.6867 5.24086 13.6867 5.24007 13.6867 5.23928C13.6867 5.2385 13.6867 5.23771 13.6867 5.23693C13.6867 5.23614 13.6867 5.23536 13.6867 5.23458C13.6867 5.23379 13.6867 5.23301 13.6867 5.23223C13.6867 5.23146 13.6867 5.23068 13.6867 5.2299C13.6867 5.22913 13.6867 5.22835 13.6867 5.22758C13.6867 5.2268 13.6867 5.22603 13.6867 5.22526C13.6867 5.22449 13.6867 5.22372 13.6867 5.22295C13.6867 5.22218 13.6867 5.22142 13.6867 5.22065C13.6867 5.21988 13.6867 5.21912 13.6867 5.21836C13.6867 5.21759 13.6867 5.21683 13.6867 5.21607C13.6867 5.21531 13.6867 5.21455 13.6867 5.2138C13.6867 5.21304 13.6867 5.21228 13.6867 5.21153C13.6867 5.21077 13.6867 5.21002 13.6867 5.20927C13.6867 5.20852 13.6867 5.20776 13.6867 5.20702C13.6867 5.20627 13.6867 5.20552 13.6867 5.20477C13.6867 5.20402 13.6867 5.20328 13.6867 5.20254C13.6867 5.20179 13.6867 5.20105 13.6867 5.20031C13.6867 5.19957 13.6867 5.19883 13.6867 5.19809C13.6867 5.19735 13.6867 5.19661 13.6867 5.19588C13.6867 5.19514 13.6867 5.19441 13.6867 5.19367C13.6867 5.19294 13.6867 5.19221 13.6867 5.19148C13.6867 5.19075 13.6867 5.19002 13.6867 5.18929C13.6867 5.18857 13.6867 5.18784 13.6867 5.18712C13.6867 5.18639 13.6867 5.18567 13.6867 5.18495C13.6867 5.18422 13.6867 5.1835 13.6867 5.18278C13.6867 5.18206 13.6867 5.18135 13.6867 5.18063C13.6867 5.17991 13.6867 5.1792 13.6867 5.17849C13.6867 5.17777 13.6867 5.17706 13.6867 5.17635C13.6867 5.17564 13.6867 5.17493 13.6867 5.17422C13.6867 5.17351 13.6867 5.17281 13.6867 5.1721C13.6867 5.17139 13.6867 5.17069 13.6867 5.16999C13.6867 5.16929 13.6867 5.16858 13.6867 5.16788C13.6867 5.16719 13.6867 5.16649 13.6867 5.16579C13.6867 5.16509 13.6867 5.1644 13.6867 5.1637C13.6867 5.16301 13.6867 5.16232 13.6867 5.16162C13.6867 5.16093 13.6867 5.16024 13.6867 5.15955C13.6867 5.15887 13.6867 5.15818 13.6867 5.15749C13.6867 5.15681 13.6867 5.15612 13.6867 5.15544C13.6867 5.15476 13.6867 5.15407 13.6867 5.15339C13.6867 5.15271 13.6867 5.15204 13.6867 5.15136C13.6867 5.15068 13.6867 5.15 13.6867 5.14933C13.6867 5.14866 13.6867 5.14798 13.6867 5.14731C13.6867 5.14664 13.6867 5.14597 13.6867 5.1453C13.6867 5.14463 13.6867 5.14396 13.6867 5.1433C13.6867 5.14263 13.6867 5.14197 13.6867 5.1413C13.6867 5.14064 13.6867 5.13998 13.6867 5.13932C13.6867 5.13866 13.6867 5.138 13.6867 5.13734C13.6867 5.13668 13.6867 5.13602 13.6867 5.13537C13.6867 5.13472 13.6867 5.13406 13.6867 5.13341C13.6867 5.13276 13.6867 5.13211 13.6867 5.13146C13.6867 5.13081 13.6867 5.13016 13.6867 5.12951C13.6867 5.12887 13.6867 5.12822 13.6867 5.12758C13.6867 5.12694 13.6867 5.12629 13.6867 5.12565C13.6867 5.12501 13.6867 5.12437 13.6867 5.12374C13.6867 5.1231 13.6867 5.12246 13.6867 5.12183C13.6867 5.12119 13.6867 5.12056 13.6867 5.11993C13.6867 5.11929 13.6867 5.11866 13.6867 5.11803C13.6867 5.1174 13.6867 5.11678 13.6867 5.11615C13.6867 5.11552 13.6867 5.1149 13.6867 5.11428C13.6867 5.11365 13.6867 5.11303 13.6867 5.11241C13.6867 5.11179 13.6867 5.11117 13.6867 5.11055C13.6867 5.10993 13.6867 5.10932 13.6867 5.1087C13.6867 5.10809 13.6867 5.10747 13.6867 5.10686C13.6867 5.10625 13.6867 5.10564 13.6867 5.10503C13.6867 5.10442 13.6867 5.10381 13.6867 5.10321C13.6867 5.1026 13.6867 5.102 13.6867 5.10139C13.6867 5.10079 13.6867 5.10019 13.6867 5.09959C13.6867 5.09899 13.6867 5.09839 13.6867 5.09779C13.6867 5.09719 13.6867 5.0966 13.6867 5.096C13.6867 5.09541 13.6867 5.09481 13.6867 5.09422C13.6867 5.09363 13.6867 5.09304 13.6867 5.09245C13.6867 5.09186 13.6867 5.09128 13.6867 5.09069C13.6867 5.0901 13.6867 5.08952 13.6867 5.08894C13.6867 5.08835 13.6867 5.08777 13.6867 5.08719C13.6867 5.08661 13.6867 5.08603 13.6867 5.08546C13.6867 5.08488 13.6867 5.0843 13.6867 5.08373C13.6867 5.08315 13.6867 5.08258 13.6867 5.08201C13.6867 5.08144 13.6867 5.08087 13.6867 5.0803C13.6867 5.07973 13.6867 5.07916 13.6867 5.0786C13.6867 5.07803 13.6867 5.07747 13.6867 5.07691C13.6867 5.07634 13.6867 5.07578 13.6867 5.07522C13.6867 5.07466 13.6867 5.07411 13.6867 5.07355C13.6867 5.07299 13.6867 5.07244 13.6867 5.07188C13.6867 5.07133 13.6867 5.07078 13.6867 5.07023C13.6867 5.06968 13.6867 5.06913 13.6867 5.06858C13.6867 5.06803 13.6867 5.06748 13.6867 5.06694C13.6867 5.06639 13.6867 5.06585 13.6867 5.06531C13.6867 5.06477 13.6867 5.06423 13.6867 5.06369C13.6867 5.06315 13.6867 5.06261 13.6867 5.06208C13.6867 5.06154 13.6867 5.061 13.6867 5.06047C13.6867 5.05994 13.6867 5.05941 13.6867 5.05888C13.6867 5.05835 13.6867 5.05782 13.6867 5.05729C13.6867 5.05676 13.6867 5.05624 13.6867 5.05571C13.6867 5.05519 13.6867 5.05467 13.6867 5.05415C13.6867 5.05363 13.6867 5.05311 13.6867 5.05259C13.6867 5.05207 13.6867 5.05155 13.6867 5.05104C13.6867 5.05052 13.6867 5.05001 13.6867 5.0495C13.6867 5.04898 13.6867 5.04847 13.6867 5.04796C13.6867 5.04746 13.6867 5.04695 13.6867 5.04644C13.6867 5.04593 13.6867 5.04543 13.6867 5.04493C13.6867 5.04442 13.6867 5.04392 13.6867 5.04342C13.6867 5.04292 13.6867 5.04242 13.6867 5.04193C13.6867 5.04143 13.6867 5.04093 13.6867 5.04044C13.6867 5.03994 13.6867 5.03945 13.6867 5.03896C13.6867 5.03847 13.6867 5.03798 13.6867 5.03749C13.6867 5.037 13.6867 5.03652 13.6867 5.03603C13.6867 5.03555 13.6867 5.03506 13.6867 5.03458C13.6867 5.0341 13.6867 5.03362 13.6867 5.03314C13.6867 5.03266 13.6867 5.03218 13.6867 5.03171C13.6867 5.03123 13.6867 5.03076 13.6867 5.03028C13.6867 5.02981 13.6867 5.02934 13.6867 5.02887C13.6867 5.0284 13.6867 5.02793 13.6867 5.02746C13.6867 5.027 13.6867 5.02653 13.6867 5.02607C13.6867 5.0256 13.6867 5.02514 13.6867 5.02468C13.6867 5.02422 13.6867 5.02376 13.6867 5.0233C13.6867 5.02284 13.6867 5.02239 13.6867 5.02193C13.6867 5.02148 13.6867 5.02102 13.6867 5.02057C13.6867 5.02012 13.6867 5.01967 13.6867 5.01922C13.6867 5.01877 13.6867 5.01833 13.6867 5.01788C13.6867 5.01743 13.6867 5.01699 13.6867 5.01655C13.6867 5.0161 13.6867 5.01566 13.6867 5.01522C13.6867 5.01478 13.6867 5.01435 13.6867 5.01391C13.6867 5.01347 13.6867 5.01304 13.6867 5.01261C13.6867 5.01217 13.6867 5.01174 13.6867 5.01131C13.6867 5.01088 13.6867 5.01045 13.6867 5.01002C13.6867 5.0096 13.6867 5.00917 13.6867 5.00875C13.6867 5.00832 13.6867 5.0079 13.6867 5.00748C13.6867 5.00706 13.6867 5.00664 13.6867 5.00622C13.6867 5.0058 13.6867 5.00539 13.6867 5.00497C13.6867 5.00456 13.6867 5.00414 13.6867 5.00373C13.6867 5.00332 13.6867 5.00291 13.6867 5.0025C13.6867 5.00209 13.6867 5.00169 13.6867 5.00128C13.6867 5.00087 13.6867 5.00047 13.6867 5.00007H12.6867C12.6867 5.00047 12.6867 5.00087 12.6867 5.00128C12.6867 5.00169 12.6867 5.00209 12.6867 5.0025C12.6867 5.00291 12.6867 5.00332 12.6867 5.00373C12.6867 5.00414 12.6867 5.00456 12.6867 5.00497C12.6867 5.00539 12.6867 5.0058 12.6867 5.00622C12.6867 5.00664 12.6867 5.00706 12.6867 5.00748C12.6867 5.0079 12.6867 5.00832 12.6867 5.00875C12.6867 5.00917 12.6867 5.0096 12.6867 5.01002C12.6867 5.01045 12.6867 5.01088 12.6867 5.01131C12.6867 5.01174 12.6867 5.01217 12.6867 5.01261C12.6867 5.01304 12.6867 5.01347 12.6867 5.01391C12.6867 5.01435 12.6867 5.01478 12.6867 5.01522C12.6867 5.01566 12.6867 5.0161 12.6867 5.01655C12.6867 5.01699 12.6867 5.01743 12.6867 5.01788C12.6867 5.01833 12.6867 5.01877 12.6867 5.01922C12.6867 5.01967 12.6867 5.02012 12.6867 5.02057C12.6867 5.02102 12.6867 5.02148 12.6867 5.02193C12.6867 5.02239 12.6867 5.02284 12.6867 5.0233C12.6867 5.02376 12.6867 5.02422 12.6867 5.02468C12.6867 5.02514 12.6867 5.0256 12.6867 5.02607C12.6867 5.02653 12.6867 5.027 12.6867 5.02746C12.6867 5.02793 12.6867 5.0284 12.6867 5.02887C12.6867 5.02934 12.6867 5.02981 12.6867 5.03028C12.6867 5.03076 12.6867 5.03123 12.6867 5.03171C12.6867 5.03218 12.6867 5.03266 12.6867 5.03314C12.6867 5.03362 12.6867 5.0341 12.6867 5.03458C12.6867 5.03506 12.6867 5.03555 12.6867 5.03603C12.6867 5.03652 12.6867 5.037 12.6867 5.03749C12.6867 5.03798 12.6867 5.03847 12.6867 5.03896C12.6867 5.03945 12.6867 5.03994 12.6867 5.04044C12.6867 5.04093 12.6867 5.04143 12.6867 5.04193C12.6867 5.04242 12.6867 5.04292 12.6867 5.04342C12.6867 5.04392 12.6867 5.04442 12.6867 5.04493C12.6867 5.04543 12.6867 5.04593 12.6867 5.04644C12.6867 5.04695 12.6867 5.04746 12.6867 5.04796C12.6867 5.04847 12.6867 5.04898 12.6867 5.0495C12.6867 5.05001 12.6867 5.05052 12.6867 5.05104C12.6867 5.05155 12.6867 5.05207 12.6867 5.05259C12.6867 5.05311 12.6867 5.05363 12.6867 5.05415C12.6867 5.05467 12.6867 5.05519 12.6867 5.05571C12.6867 5.05624 12.6867 5.05676 12.6867 5.05729C12.6867 5.05782 12.6867 5.05835 12.6867 5.05888C12.6867 5.05941 12.6867 5.05994 12.6867 5.06047C12.6867 5.061 12.6867 5.06154 12.6867 5.06208C12.6867 5.06261 12.6867 5.06315 12.6867 5.06369C12.6867 5.06423 12.6867 5.06477 12.6867 5.06531C12.6867 5.06585 12.6867 5.06639 12.6867 5.06694C12.6867 5.06748 12.6867 5.06803 12.6867 5.06858C12.6867 5.06913 12.6867 5.06968 12.6867 5.07023C12.6867 5.07078 12.6867 5.07133 12.6867 5.07188C12.6867 5.07244 12.6867 5.07299 12.6867 5.07355C12.6867 5.07411 12.6867 5.07466 12.6867 5.07522C12.6867 5.07578 12.6867 5.07634 12.6867 5.07691C12.6867 5.07747 12.6867 5.07803 12.6867 5.0786C12.6867 5.07916 12.6867 5.07973 12.6867 5.0803C12.6867 5.08087 12.6867 5.08144 12.6867 5.08201C12.6867 5.08258 12.6867 5.08315 12.6867 5.08373C12.6867 5.0843 12.6867 5.08488 12.6867 5.08546C12.6867 5.08603 12.6867 5.08661 12.6867 5.08719C12.6867 5.08777 12.6867 5.08835 12.6867 5.08894C12.6867 5.08952 12.6867 5.0901 12.6867 5.09069C12.6867 5.09128 12.6867 5.09186 12.6867 5.09245C12.6867 5.09304 12.6867 5.09363 12.6867 5.09422C12.6867 5.09481 12.6867 5.09541 12.6867 5.096C12.6867 5.0966 12.6867 5.09719 12.6867 5.09779C12.6867 5.09839 12.6867 5.09899 12.6867 5.09959C12.6867 5.10019 12.6867 5.10079 12.6867 5.10139C12.6867 5.102 12.6867 5.1026 12.6867 5.10321C12.6867 5.10381 12.6867 5.10442 12.6867 5.10503C12.6867 5.10564 12.6867 5.10625 12.6867 5.10686C12.6867 5.10747 12.6867 5.10809 12.6867 5.1087C12.6867 5.10932 12.6867 5.10993 12.6867 5.11055C12.6867 5.11117 12.6867 5.11179 12.6867 5.11241C12.6867 5.11303 12.6867 5.11365 12.6867 5.11428C12.6867 5.1149 12.6867 5.11552 12.6867 5.11615C12.6867 5.11678 12.6867 5.1174 12.6867 5.11803C12.6867 5.11866 12.6867 5.11929 12.6867 5.11993C12.6867 5.12056 12.6867 5.12119 12.6867 5.12183C12.6867 5.12246 12.6867 5.1231 12.6867 5.12374C12.6867 5.12437 12.6867 5.12501 12.6867 5.12565C12.6867 5.12629 12.6867 5.12694 12.6867 5.12758C12.6867 5.12822 12.6867 5.12887 12.6867 5.12951C12.6867 5.13016 12.6867 5.13081 12.6867 5.13146C12.6867 5.13211 12.6867 5.13276 12.6867 5.13341C12.6867 5.13406 12.6867 5.13472 12.6867 5.13537C12.6867 5.13602 12.6867 5.13668 12.6867 5.13734C12.6867 5.138 12.6867 5.13866 12.6867 5.13932C12.6867 5.13998 12.6867 5.14064 12.6867 5.1413C12.6867 5.14197 12.6867 5.14263 12.6867 5.1433C12.6867 5.14396 12.6867 5.14463 12.6867 5.1453C12.6867 5.14597 12.6867 5.14664 12.6867 5.14731C12.6867 5.14798 12.6867 5.14866 12.6867 5.14933C12.6867 5.15 12.6867 5.15068 12.6867 5.15136C12.6867 5.15204 12.6867 5.15271 12.6867 5.15339C12.6867 5.15407 12.6867 5.15476 12.6867 5.15544C12.6867 5.15612 12.6867 5.15681 12.6867 5.15749C12.6867 5.15818 12.6867 5.15887 12.6867 5.15955C12.6867 5.16024 12.6867 5.16093 12.6867 5.16162C12.6867 5.16232 12.6867 5.16301 12.6867 5.1637C12.6867 5.1644 12.6867 5.16509 12.6867 5.16579C12.6867 5.16649 12.6867 5.16719 12.6867 5.16788C12.6867 5.16858 12.6867 5.16929 12.6867 5.16999C12.6867 5.17069 12.6867 5.17139 12.6867 5.1721C12.6867 5.17281 12.6867 5.17351 12.6867 5.17422C12.6867 5.17493 12.6867 5.17564 12.6867 5.17635C12.6867 5.17706 12.6867 5.17777 12.6867 5.17849C12.6867 5.1792 12.6867 5.17991 12.6867 5.18063C12.6867 5.18135 12.6867 5.18206 12.6867 5.18278C12.6867 5.1835 12.6867 5.18422 12.6867 5.18495C12.6867 5.18567 12.6867 5.18639 12.6867 5.18712C12.6867 5.18784 12.6867 5.18857 12.6867 5.18929C12.6867 5.19002 12.6867 5.19075 12.6867 5.19148C12.6867 5.19221 12.6867 5.19294 12.6867 5.19367C12.6867 5.19441 12.6867 5.19514 12.6867 5.19588C12.6867 5.19661 12.6867 5.19735 12.6867 5.19809C12.6867 5.19883 12.6867 5.19957 12.6867 5.20031C12.6867 5.20105 12.6867 5.20179 12.6867 5.20254C12.6867 5.20328 12.6867 5.20402 12.6867 5.20477C12.6867 5.20552 12.6867 5.20627 12.6867 5.20702C12.6867 5.20776 12.6867 5.20852 12.6867 5.20927C12.6867 5.21002 12.6867 5.21077 12.6867 5.21153C12.6867 5.21228 12.6867 5.21304 12.6867 5.2138C12.6867 5.21455 12.6867 5.21531 12.6867 5.21607C12.6867 5.21683 12.6867 5.21759 12.6867 5.21836C12.6867 5.21912 12.6867 5.21988 12.6867 5.22065C12.6867 5.22142 12.6867 5.22218 12.6867 5.22295C12.6867 5.22372 12.6867 5.22449 12.6867 5.22526C12.6867 5.22603 12.6867 5.2268 12.6867 5.22758C12.6867 5.22835 12.6867 5.22913 12.6867 5.2299C12.6867 5.23068 12.6867 5.23146 12.6867 5.23223C12.6867 5.23301 12.6867 5.23379 12.6867 5.23458C12.6867 5.23536 12.6867 5.23614 12.6867 5.23693C12.6867 5.23771 12.6867 5.2385 12.6867 5.23928C12.6867 5.24007 12.6867 5.24086 12.6867 5.24165C12.6867 5.24244 12.6867 5.24323 12.6867 5.24402C12.6867 5.24481 12.6867 5.24561 12.6867 5.2464C12.6867 5.2472 12.6867 5.24799 12.6867 5.24879C12.6867 5.24959 12.6867 5.25039 12.6867 5.25119C12.6867 5.25199 12.6867 5.25279 12.6867 5.2536C12.6867 5.2544 12.6867 5.2552 12.6867 5.25601C12.6867 5.25681 12.6867 5.25762 12.6867 5.25843C12.6867 5.25924 12.6867 5.26005 12.6867 5.26086C12.6867 5.26167 12.6867 5.26248 12.6867 5.2633C12.6867 5.26411 12.6867 5.26493 12.6867 5.26574C12.6867 5.26656 12.6867 5.26738 12.6867 5.2682C12.6867 5.26901 12.6867 5.26983 12.6867 5.27066C12.6867 5.27148 12.6867 5.2723 12.6867 5.27313C12.6867 5.27395 12.6867 5.27478 12.6867 5.2756C12.6867 5.27643 12.6867 5.27726 12.6867 5.27809C12.6867 5.27892 12.6867 5.27975 12.6867 5.28058C12.6867 5.28141 12.6867 5.28225 12.6867 5.28308C12.6867 5.28391 12.6867 5.28475 12.6867 5.28559C12.6867 5.28643 12.6867 5.28726 12.6867 5.2881C12.6867 5.28894 12.6867 5.28979 12.6867 5.29063C12.6867 5.29147 12.6867 5.29232 12.6867 5.29316C12.6867 5.29401 12.6867 5.29485 12.6867 5.2957C12.6867 5.29655 12.6867 5.2974 12.6867 5.29825C12.6867 5.2991 12.6867 5.29995 12.6867 5.3008C12.6867 5.30166 12.6867 5.30251 12.6867 5.30337C12.6867 5.30422 12.6867 5.30508 12.6867 5.30594C12.6867 5.3068 12.6867 5.30766 12.6867 5.30852C12.6867 5.30938 12.6867 5.31024 12.6867 5.3111C12.6867 5.31197 12.6867 5.31283 12.6867 5.3137C12.6867 5.31456 12.6867 5.31543 12.6867 5.3163C12.6867 5.31717 12.6867 5.31804 12.6867 5.31891C12.6867 5.31978 12.6867 5.32065 12.6867 5.32153C12.6867 5.3224 12.6867 5.32327 12.6867 5.32415C12.6867 5.32503 12.6867 5.3259 12.6867 5.32678C12.6867 5.32766 12.6867 5.32854 12.6867 5.32942C12.6867 5.33031 12.6867 5.33119 12.6867 5.33207C12.6867 5.33296 12.6867 5.33384 12.6867 5.33473C12.6867 5.33562 12.6867 5.3365 12.6867 5.33739C12.6867 5.33828 12.6867 5.33917 12.6867 5.34006C12.6867 5.34096 12.6867 5.34185 12.6867 5.34274C12.6867 5.34364 12.6867 5.34453 12.6867 5.34543C12.6867 5.34633 12.6867 5.34722 12.6867 5.34812C12.6867 5.34902 12.6867 5.34992 12.6867 5.35082C12.6867 5.35173 12.6867 5.35263 12.6867 5.35353C12.6867 5.35444 12.6867 5.35534 12.6867 5.35625C12.6867 5.35716 12.6867 5.35807 12.6867 5.35898C12.6867 5.35989 12.6867 5.3608 12.6867 5.36171C12.6867 5.36262 12.6867 5.36353 12.6867 5.36445C12.6867 5.36536 12.6867 5.36628 12.6867 5.36719C12.6867 5.36811 12.6867 5.36903 12.6867 5.36995C12.6867 5.37087 12.6867 5.37179 12.6867 5.37271C12.6867 5.37363 12.6867 5.37456 12.6867 5.37548C12.6867 5.37641 12.6867 5.37733 12.6867 5.37826C12.6867 5.37919 12.6867 5.38011 12.6867 5.38104C12.6867 5.38197 12.6867 5.3829 12.6867 5.38384C12.6867 5.38477 12.6867 5.3857 12.6867 5.38664C12.6867 5.38757 12.6867 5.38851 12.6867 5.38944C12.6867 5.39038 12.6867 5.39132 12.6867 5.39226C12.6867 5.3932 12.6867 5.39414 12.6867 5.39508C12.6867 5.39602 12.6867 5.39697 12.6867 5.39791C12.6867 5.39886 12.6867 5.3998 12.6867 5.40075C12.6867 5.4017 12.6867 5.40264 12.6867 5.40359C12.6867 5.40454 12.6867 5.40549 12.6867 5.40645C12.6867 5.4074 12.6867 5.40835 12.6867 5.4093C12.6867 5.41026 12.6867 5.41122 12.6867 5.41217C12.6867 5.41313 12.6867 5.41409 12.6867 5.41505C12.6867 5.41601 12.6867 5.41697 12.6867 5.41793C12.6867 5.41889 12.6867 5.41985 12.6867 5.42082C12.6867 5.42178 12.6867 5.42275 12.6867 5.42371C12.6867 5.42468 12.6867 5.42565 12.6867 5.42662C12.6867 5.42759 12.6867 5.42856 12.6867 5.42953C12.6867 5.4305 12.6867 5.43147 12.6867 5.43245C12.6867 5.43342 12.6867 5.4344 12.6867 5.43537C12.6867 5.43635 12.6867 5.43733 12.6867 5.43831C12.6867 5.43929 12.6867 5.44027 12.6867 5.44125C12.6867 5.44223 12.6867 5.44321 12.6867 5.44419C12.6867 5.44518 12.6867 5.44616 12.6867 5.44715C12.6867 5.44814 12.6867 5.44912 12.6867 5.45011C12.6867 5.4511 12.6867 5.45209 12.6867 5.45308C12.6867 5.45407 12.6867 5.45507 12.6867 5.45606C12.6867 5.45705 12.6867 5.45805 12.6867 5.45904C12.6867 5.46004 12.6867 5.46104 12.6867 5.46203C12.6867 5.46303 12.6867 5.46403 12.6867 5.46503C12.6867 5.46603 12.6867 5.46704 12.6867 5.46804C12.6867 5.46904 12.6867 5.47005 12.6867 5.47105C12.6867 5.47206 12.6867 5.47306 12.6867 5.47407C12.6867 5.47508 12.6867 5.47609 12.6867 5.4771C12.6867 5.47811 12.6867 5.47912 12.6867 5.48013C12.6867 5.48115 12.6867 5.48216 12.6867 5.48318C12.6867 5.48419 12.6867 5.48521 12.6867 5.48623C12.6867 5.48724 12.6867 5.48826 12.6867 5.48928C12.6867 5.4903 12.6867 5.49132 12.6867 5.49234C12.6867 5.49337 12.6867 5.49439 12.6867 5.49542C12.6867 5.49644 12.6867 5.49747 12.6867 5.49849C12.6867 5.49952 12.6867 5.50055 12.6867 5.50158C12.6867 5.50261 12.6867 5.50364 12.6867 5.50467C12.6867 5.5057 12.6867 5.50673 12.6867 5.50777C12.6867 5.5088 12.6867 5.50984 12.6867 5.51087C12.6867 5.51191 12.6867 5.51295 12.6867 5.51399C12.6867 5.51503 12.6867 5.51607 12.6867 5.51711C12.6867 5.51815 12.6867 5.51919 12.6867 5.52023C12.6867 5.52128 12.6867 5.52232 12.6867 5.52337C12.6867 5.52441 12.6867 5.52546 12.6867 5.52651C12.6867 5.52756 12.6867 5.52861 12.6867 5.52966C12.6867 5.53071 12.6867 5.53176 12.6867 5.53281C12.6867 5.53387 12.6867 5.53492 12.6867 5.53598C12.6867 5.53703 12.6867 5.53809 12.6867 5.53915C12.6867 5.5402 12.6867 5.54126 12.6867 5.54232C12.6867 5.54338 12.6867 5.54444 12.6867 5.5455C12.6867 5.54657 12.6867 5.54763 12.6867 5.5487C12.6867 5.54976 12.6867 5.55083 12.6867 5.55189C12.6867 5.55296 12.6867 5.55403 12.6867 5.5551C12.6867 5.55617 12.6867 5.55724 12.6867 5.55831C12.6867 5.55938 12.6867 5.56045 12.6867 5.56153C12.6867 5.5626 12.6867 5.56367 12.6867 5.56475C12.6867 5.56583 12.6867 5.5669 12.6867 5.56798C12.6867 5.56906 12.6867 5.57014 12.6867 5.57122C12.6867 5.5723 12.6867 5.57338 12.6867 5.57447C12.6867 5.57555 12.6867 5.57663 12.6867 5.57772C12.6867 5.57881 12.6867 5.57989 12.6867 5.58098C12.6867 5.58207 12.6867 5.58316 12.6867 5.58425C12.6867 5.58534 12.6867 5.58643 12.6867 5.58752C12.6867 5.58861 12.6867 5.5897 12.6867 5.5908C12.6867 5.59189 12.6867 5.59299 12.6867 5.59409C12.6867 5.59518 12.6867 5.59628 12.6867 5.59738C12.6867 5.59848 12.6867 5.59958 12.6867 5.60068C12.6867 5.60178 12.6867 5.60288 12.6867 5.60399C12.6867 5.60509 12.6867 5.6062 12.6867 5.6073C12.6867 5.60841 12.6867 5.60951 12.6867 5.61062C12.6867 5.61173 12.6867 5.61284 12.6867 5.61395C12.6867 5.61506 12.6867 5.61617 12.6867 5.61729C12.6867 5.6184 12.6867 5.61951 12.6867 5.62063C12.6867 5.62174 12.6867 5.62286 12.6867 5.62397C12.6867 5.62509 12.6867 5.62621 12.6867 5.62733C12.6867 5.62845 12.6867 5.62957 12.6867 5.63069C12.6867 5.63181 12.6867 5.63294 12.6867 5.63406C12.6867 5.63518 12.6867 5.63631 12.6867 5.63743C12.6867 5.63856 12.6867 5.63969 12.6867 5.64082C12.6867 5.64194 12.6867 5.64307 12.6867 5.6442C12.6867 5.64533 12.6867 5.64647 12.6867 5.6476C12.6867 5.64873 12.6867 5.64987 12.6867 5.651C12.6867 5.65214 12.6867 5.65327 12.6867 5.65441C12.6867 5.65555 12.6867 5.65668 12.6867 5.65782C12.6867 5.65896 12.6867 5.6601 12.6867 5.66125C12.6867 5.66239 12.6867 5.66353 12.6867 5.66467C12.6867 5.66582 12.6867 5.66696 12.6867 5.66811C12.6867 5.66925 12.6867 5.6704 12.6867 5.67155C12.6867 5.6727 12.6867 5.67385 12.6867 5.675C12.6867 5.67615 12.6867 5.6773 12.6867 5.67845C12.6867 5.67961 12.6867 5.68076 12.6867 5.68191C12.6867 5.68307 12.6867 5.68422 12.6867 5.68538C12.6867 5.68654 12.6867 5.6877 12.6867 5.68886C12.6867 5.69002 12.6867 5.69118 12.6867 5.69234C12.6867 5.6935 12.6867 5.69466 12.6867 5.69582C12.6867 5.69699 12.6867 5.69815 12.6867 5.69932C12.6867 5.70048 12.6867 5.70165 12.6867 5.70282C12.6867 5.70399 12.6867 5.70516 12.6867 5.70633C12.6867 5.7075 12.6867 5.70867 12.6867 5.70984C12.6867 5.71101 12.6867 5.71219 12.6867 5.71336C12.6867 5.71453 12.6867 5.71571 12.6867 5.71689C12.6867 5.71806 12.6867 5.71924 12.6867 5.72042C12.6867 5.7216 12.6867 5.72278 12.6867 5.72396C12.6867 5.72514 12.6867 5.72632 12.6867 5.72751C12.6867 5.72869 12.6867 5.72987 12.6867 5.73106C12.6867 5.73224 12.6867 5.73343 12.6867 5.73462C12.6867 5.7358 12.6867 5.73699 12.6867 5.73818C12.6867 5.73937 12.6867 5.74056 12.6867 5.74175C12.6867 5.74295 12.6867 5.74414 12.6867 5.74533C12.6867 5.74653 12.6867 5.74772 12.6867 5.74892C12.6867 5.75011 12.6867 5.75131 12.6867 5.75251C12.6867 5.75371 12.6867 5.75491 12.6867 5.75611C12.6867 5.75731 12.6867 5.75851 12.6867 5.75971C12.6867 5.76091 12.6867 5.76212 12.6867 5.76332C12.6867 5.76452 12.6867 5.76573 12.6867 5.76694C12.6867 5.76814 12.6867 5.76935 12.6867 5.77056C12.6867 5.77177 12.6867 5.77298 12.6867 5.77419C12.6867 5.7754 12.6867 5.77661 12.6867 5.77782C12.6867 5.77904 12.6867 5.78025 12.6867 5.78147C12.6867 5.78268 12.6867 5.7839 12.6867 5.78511C12.6867 5.78633 12.6867 5.78755 12.6867 5.78877C12.6867 5.78999 12.6867 5.79121 12.6867 5.79243C12.6867 5.79365 12.6867 5.79487 12.6867 5.7961C12.6867 5.79732 12.6867 5.79854 12.6867 5.79977C12.6867 5.80099 12.6867 5.80222 12.6867 5.80345C12.6867 5.80468 12.6867 5.8059 12.6867 5.80713C12.6867 5.80836 12.6867 5.80959 12.6867 5.81083C12.6867 5.81206 12.6867 5.81329 12.6867 5.81452C12.6867 5.81576 12.6867 5.81699 12.6867 5.81823C12.6867 5.81946 12.6867 5.8207 12.6867 5.82194C12.6867 5.82318 12.6867 5.82442 12.6867 5.82566C12.6867 5.8269 12.6867 5.82814 12.6867 5.82938C12.6867 5.83062 12.6867 5.83186 12.6867 5.83311C12.6867 5.83435 12.6867 5.8356 12.6867 5.83684C12.6867 5.83809 12.6867 5.83934 12.6867 5.84059C12.6867 5.84183 12.6867 5.84308 12.6867 5.84433C12.6867 5.84558 12.6867 5.84683 12.6867 5.84809C12.6867 5.84934 12.6867 5.85059 12.6867 5.85185C12.6867 5.8531 12.6867 5.85436 12.6867 5.85561C12.6867 5.85687 12.6867 5.85813 12.6867 5.85939C12.6867 5.86064 12.6867 5.8619 12.6867 5.86316C12.6867 5.86442 12.6867 5.86569 12.6867 5.86695C12.6867 5.86821 12.6867 5.86947 12.6867 5.87074C12.6867 5.872 12.6867 5.87327 12.6867 5.87453C12.6867 5.8758 12.6867 5.87707 12.6867 5.87834C12.6867 5.87961 12.6867 5.88088 12.6867 5.88215C12.6867 5.88342 12.6867 5.88469 12.6867 5.88596C12.6867 5.88723 12.6867 5.88851 12.6867 5.88978C12.6867 5.89106 12.6867 5.89233 12.6867 5.89361C12.6867 5.89489 12.6867 5.89616 12.6867 5.89744C12.6867 5.89872 12.6867 5.9 12.6867 5.90128C12.6867 5.90256 12.6867 5.90384 12.6867 5.90512C12.6867 5.90641 12.6867 5.90769 12.6867 5.90898C12.6867 5.91026 12.6867 5.91155 12.6867 5.91283C12.6867 5.91412 12.6867 5.91541 12.6867 5.9167C12.6867 5.91798 12.6867 5.91927 12.6867 5.92056C12.6867 5.92185 12.6867 5.92315 12.6867 5.92444C12.6867 5.92573 12.6867 5.92702 12.6867 5.92832C12.6867 5.92961 12.6867 5.93091 12.6867 5.93221C12.6867 5.9335 12.6867 5.9348 12.6867 5.9361C12.6867 5.9374 12.6867 5.9387 12.6867 5.94C12.6867 5.9413 12.6867 5.9426 12.6867 5.9439C12.6867 5.9452 12.6867 5.94651 12.6867 5.94781C12.6867 5.94912 12.6867 5.95042 12.6867 5.95173C12.6867 5.95303 12.6867 5.95434 12.6867 5.95565C12.6867 5.95696 12.6867 5.95827 12.6867 5.95958C12.6867 5.96089 12.6867 5.9622 12.6867 5.96351C12.6867 5.96482 12.6867 5.96614 12.6867 5.96745C12.6867 5.96876 12.6867 5.97008 12.6867 5.9714C12.6867 5.97271 12.6867 5.97403 12.6867 5.97535C12.6867 5.97666 12.6867 5.97798 12.6867 5.9793C12.6867 5.98062 12.6867 5.98194 12.6867 5.98327C12.6867 5.98459 12.6867 5.98591 12.6867 5.98723C12.6867 5.98856 12.6867 5.98988 12.6867 5.99121C12.6867 5.99253 12.6867 5.99386 12.6867 5.99519C12.6867 5.99652 12.6867 5.99785 12.6867 5.99917C12.6867 6.0005 12.6867 6.00183 12.6867 6.00317C12.6867 6.0045 12.6867 6.00583 12.6867 6.00716C12.6867 6.0085 12.6867 6.00983 12.6867 6.01117C12.6867 6.0125 12.6867 6.01384 12.6867 6.01518C12.6867 6.01651 12.6867 6.01785 12.6867 6.01919C12.6867 6.02053 12.6867 6.02187 12.6867 6.02321C12.6867 6.02455 12.6867 6.02589 12.6867 6.02724C12.6867 6.02858 12.6867 6.02992 12.6867 6.03127C12.6867 6.03261 12.6867 6.03396 12.6867 6.03531C12.6867 6.03665 12.6867 6.038 12.6867 6.03935C12.6867 6.0407 12.6867 6.04205 12.6867 6.0434C12.6867 6.04475 12.6867 6.0461 12.6867 6.04745C12.6867 6.0488 12.6867 6.05016 12.6867 6.05151C12.6867 6.05287 12.6867 6.05422 12.6867 6.05558C12.6867 6.05693 12.6867 6.05829 12.6867 6.05965C12.6867 6.06101 12.6867 6.06237 12.6867 6.06372C12.6867 6.06508 12.6867 6.06645 12.6867 6.06781C12.6867 6.06917 12.6867 6.07053 12.6867 6.0719C12.6867 6.07326 12.6867 6.07462 12.6867 6.07599C12.6867 6.07735 12.6867 6.07872 12.6867 6.08009C12.6867 6.08146 12.6867 6.08282 12.6867 6.08419C12.6867 6.08556 12.6867 6.08693 12.6867 6.0883C12.6867 6.08967 12.6867 6.09105 12.6867 6.09242C12.6867 6.09379 12.6867 6.09517 12.6867 6.09654C12.6867 6.09791 12.6867 6.09929 12.6867 6.10067C12.6867 6.10204 12.6867 6.10342 12.6867 6.1048C12.6867 6.10618 12.6867 6.10756 12.6867 6.10894C12.6867 6.11032 12.6867 6.1117 12.6867 6.11308C12.6867 6.11446 12.6867 6.11585 12.6867 6.11723C12.6867 6.11861 12.6867 6.12 12.6867 6.12138C12.6867 6.12277 12.6867 6.12416 12.6867 6.12554C12.6867 6.12693 12.6867 6.12832 12.6867 6.12971C12.6867 6.1311 12.6867 6.13249 12.6867 6.13388C12.6867 6.13527 12.6867 6.13666 12.6867 6.13806C12.6867 6.13945 12.6867 6.14084 12.6867 6.14224C12.6867 6.14363 12.6867 6.14503 12.6867 6.14642C12.6867 6.14782 12.6867 6.14922 12.6867 6.15062C12.6867 6.15202 12.6867 6.15341 12.6867 6.15481C12.6867 6.15622 12.6867 6.15762 12.6867 6.15902C12.6867 6.16042 12.6867 6.16182 12.6867 6.16323C12.6867 6.16463 12.6867 6.16604 12.6867 6.16744C12.6867 6.16885 12.6867 6.17025 12.6867 6.17166C12.6867 6.17307 12.6867 6.17448 12.6867 6.17588C12.6867 6.17729 12.6867 6.1787 12.6867 6.18011C12.6867 6.18153 12.6867 6.18294 12.6867 6.18435C12.6867 6.18576 12.6867 6.18718 12.6867 6.18859C12.6867 6.19001 12.6867 6.19142 12.6867 6.19284C12.6867 6.19425 12.6867 6.19567 12.6867 6.19709C12.6867 6.19851 12.6867 6.19992 12.6867 6.20134C12.6867 6.20276 12.6867 6.20418 12.6867 6.20561C12.6867 6.20703 12.6867 6.20845 12.6867 6.20987C12.6867 6.2113 12.6867 6.21272 12.6867 6.21415C12.6867 6.21557 12.6867 6.217 12.6867 6.21842C12.6867 6.21985 12.6867 6.22128 12.6867 6.22271C12.6867 6.22413 12.6867 6.22556 12.6867 6.22699C12.6867 6.22842 12.6867 6.22986 12.6867 6.23129C12.6867 6.23272 12.6867 6.23415 12.6867 6.23559C12.6867 6.23702 12.6867 6.23845 12.6867 6.23989C12.6867 6.24133 12.6867 6.24276 12.6867 6.2442C12.6867 6.24564 12.6867 6.24707 12.6867 6.24851C12.6867 6.24995 12.6867 6.25139 12.6867 6.25283C12.6867 6.25427 12.6867 6.25571 12.6867 6.25716C12.6867 6.2586 12.6867 6.26004 12.6867 6.26149C12.6867 6.26293 12.6867 6.26438 12.6867 6.26582C12.6867 6.26727 12.6867 6.26871 12.6867 6.27016C12.6867 6.27161 12.6867 6.27306 12.6867 6.27451C12.6867 6.27596 12.6867 6.27741 12.6867 6.27886C12.6867 6.28031 12.6867 6.28176 12.6867 6.28321C12.6867 6.28466 12.6867 6.28612 12.6867 6.28757C12.6867 6.28903 12.6867 6.29048 12.6867 6.29194C12.6867 6.29339 12.6867 6.29485 12.6867 6.29631C12.6867 6.29777 12.6867 6.29922 12.6867 6.30068C12.6867 6.30214 12.6867 6.3036 12.6867 6.30506C12.6867 6.30653 12.6867 6.30799 12.6867 6.30945C12.6867 6.31091 12.6867 6.31238 12.6867 6.31384C12.6867 6.31531 12.6867 6.31677 12.6867 6.31824C12.6867 6.3197 12.6867 6.32117 12.6867 6.32264C12.6867 6.32411 12.6867 6.32557 12.6867 6.32704C12.6867 6.32851 12.6867 6.32998 12.6867 6.33145C12.6867 6.33293 12.6867 6.3344 12.6867 6.33587C12.6867 6.33734 12.6867 6.33882 12.6867 6.34029C12.6867 6.34177 12.6867 6.34324 12.6867 6.34472C12.6867 6.34619 12.6867 6.34767 12.6867 6.34915C12.6867 6.35063 12.6867 6.3521 12.6867 6.35358C12.6867 6.35506 12.6867 6.35654 12.6867 6.35802C12.6867 6.35951 12.6867 6.36099 12.6867 6.36247C12.6867 6.36395 12.6867 6.36544 12.6867 6.36692C12.6867 6.36841 12.6867 6.36989 12.6867 6.37138C12.6867 6.37286 12.6867 6.37435 12.6867 6.37584C12.6867 6.37732 12.6867 6.37881 12.6867 6.3803C12.6867 6.38179 12.6867 6.38328 12.6867 6.38477C12.6867 6.38626 12.6867 6.38775 12.6867 6.38925C12.6867 6.39074 12.6867 6.39223 12.6867 6.39373C12.6867 6.39522 12.6867 6.39672 12.6867 6.39821C12.6867 6.39971 12.6867 6.4012 12.6867 6.4027C12.6867 6.4042 12.6867 6.4057 12.6867 6.4072C12.6867 6.40869 12.6867 6.41019 12.6867 6.41169C12.6867 6.4132 12.6867 6.4147 12.6867 6.4162C12.6867 6.4177 12.6867 6.4192 12.6867 6.42071C12.6867 6.42221 12.6867 6.42372 12.6867 6.42522C12.6867 6.42673 12.6867 6.42823 12.6867 6.42974C12.6867 6.43125 12.6867 6.43275 12.6867 6.43426C12.6867 6.43577 12.6867 6.43728 12.6867 6.43879C12.6867 6.4403 12.6867 6.44181 12.6867 6.44332C12.6867 6.44484 12.6867 6.44635 12.6867 6.44786C12.6867 6.44938 12.6867 6.45089 12.6867 6.4524C12.6867 6.45392 12.6867 6.45543 12.6867 6.45695C12.6867 6.45847 12.6867 6.45998 12.6867 6.4615C12.6867 6.46302 12.6867 6.46454 12.6867 6.46606C12.6867 6.46758 12.6867 6.4691 12.6867 6.47062C12.6867 6.47214 12.6867 6.47366 12.6867 6.47519C12.6867 6.47671 12.6867 6.47823 12.6867 6.47976C12.6867 6.48128 12.6867 6.48281 12.6867 6.48433C12.6867 6.48586 12.6867 6.48738 12.6867 6.48891C12.6867 6.49044 12.6867 6.49197 12.6867 6.4935C12.6867 6.49503 12.6867 6.49656 12.6867 6.49809C12.6867 6.49962 12.6867 6.50115 12.6867 6.50268C12.6867 6.50421 12.6867 6.50574 12.6867 6.50728C12.6867 6.50881 12.6867 6.51035 12.6867 6.51188C12.6867 6.51342 12.6867 6.51495 12.6867 6.51649C12.6867 6.51803 12.6867 6.51956 12.6867 6.5211C12.6867 6.52264 12.6867 6.52418 12.6867 6.52572C12.6867 6.52726 12.6867 6.5288 12.6867 6.53034C12.6867 6.53188 12.6867 6.53342 12.6867 6.53497C12.6867 6.53651 12.6867 6.53805 12.6867 6.5396C12.6867 6.54114 12.6867 6.54269 12.6867 6.54423C12.6867 6.54578 12.6867 6.54732 12.6867 6.54887C12.6867 6.55042 12.6867 6.55197 12.6867 6.55352C12.6867 6.55506 12.6867 6.55661 12.6867 6.55816C12.6867 6.55971 12.6867 6.56127 12.6867 6.56282C12.6867 6.56437 12.6867 6.56592 12.6867 6.56747C12.6867 6.56903 12.6867 6.57058 12.6867 6.57214C12.6867 6.57369 12.6867 6.57525 12.6867 6.5768C12.6867 6.57836 12.6867 6.57992 12.6867 6.58147C12.6867 6.58303 12.6867 6.58459 12.6867 6.58615C12.6867 6.58771 12.6867 6.58927 12.6867 6.59083C12.6867 6.59239 12.6867 6.59395 12.6867 6.59552C12.6867 6.59708 12.6867 6.59864 12.6867 6.6002C12.6867 6.60177 12.6867 6.60333 12.6867 6.6049C12.6867 6.60646 12.6867 6.60803 12.6867 6.6096C12.6867 6.61116 12.6867 6.61273 12.6867 6.6143C12.6867 6.61587 12.6867 6.61743 12.6867 6.619C12.6867 6.62057 12.6867 6.62214 12.6867 6.62372H13.6867ZM13.1867 5.50007H15V4.50007H13.1867V5.50007ZM14.5 5.00007V6.62372H15.5V5.00007H14.5ZM4.5 10.3326C4.5 10.7192 4.8134 11.0326 5.2 11.0326V10.0326C5.36568 10.0326 5.5 10.1669 5.5 10.3326H4.5Z" fill="#EB5757"/>
</g>
<defs>
<filter id="filter0_d" x="0.5" y="0.500122" width="27" height="26.9999" filterUnits="userSpaceOnUse" color-interpolation-filters="sRGB">
<feFlood flood-opacity="0" result="BackgroundImageFix"/>
<feColorMatrix in="SourceAlpha" type="matrix" values="0 0 0 0 0 0 0 0 0 0 0 0 0 0 0 0 0 0 127 0"/>
<feOffset/>
<feGaussianBlur stdDeviation="2"/>
<feColorMatrix type="matrix" values="0 0 0 0 0 0 0 0 0 0 0 0 0 0 0 0 0 0 0.75 0"/>
<feBlend mode="normal" in2="BackgroundImageFix" result="effect1_dropShadow"/>
<feBlend mode="normal" in="SourceGraphic" in2="effect1_dropShadow" result="shape"/>
</filter>
</defs>
</svg>
